<?xml version="1.0" encoding="utf-8"?>
<!-- Generator: Adobe Illustrator 21.1.0, SVG Export Plug-In . SVG Version: 6.00 Build 0)  -->
<svg version="1.1" id="Layer_1" xmlns="http://www.w3.org/2000/svg" xmlns:xlink="http://www.w3.org/1999/xlink" x="0px" y="0px"
	 viewBox="0 0 566.9 566.9" style="enable-background:new 0 0 566.9 566.9;" xml:space="preserve">
<style type="text/css">
	.st0{fill:url(#SVGID_1_);}
	.st1{fill:#FFFFFF;}
</style>
<g>
	<linearGradient id="SVGID_1_" gradientUnits="userSpaceOnUse" x1="593.3002" y1="534.3646" x2="-26.3702" y2="32.5654">
		<stop  offset="0" style="stop-color:#5CC1D2"/>
		<stop  offset="0.29" style="stop-color:#4AB8A6"/>
		<stop  offset="1" style="stop-color:#0CA071"/>
	</linearGradient>
	<rect x="0" y="0" class="st0" width="566.9" height="566.9"/>
	<g>
		<path class="st1" d="M415.2,70.9H151.8c-13.9,0-25.2,11.3-25.2,25.2v374.5c0,13.9,11.3,25.2,25.2,25.2h263.4
			c13.9,0,25.2-11.3,25.2-25.2V96.1C440.4,82.2,429.1,70.9,415.2,70.9L415.2,70.9z M421.4,470.6c0,3.6-2.6,6.2-6.2,6.2H151.8
			c-3.6,0-6.2-2.6-6.2-6.2V96.1c0-3.6,2.6-6.2,6.2-6.2h263.4c3.6,0,6.2,2.6,6.2,6.2V470.6z M377.7,369.2c0,5.1-4.1,9.2-9.2,9.2
			H250.1c-5.1,0-9.2-4.1-9.2-9.2s4.1-9.2,9.2-9.2h118.3C373.1,359.5,377.7,364.1,377.7,369.2L377.7,369.2z M377.7,426.3
			c0,5.1-4.1,9.2-9.2,9.2H250.1c-5.1,0-9.2-4.1-9.2-9.2c0-5.1,4.1-9.2,9.2-9.2h118.3C373.1,416.6,377.7,421.2,377.7,426.3
			L377.7,426.3z M377.7,312.6c0,5.1-4.1,9.2-9.2,9.2H250.1c-5.1,0-9.2-4.1-9.2-9.2s4.1-9.2,9.2-9.2h118.3
			C373.1,303.4,377.7,307.5,377.7,312.6L377.7,312.6z M377.7,256.6c0,5.1-4.1,9.2-9.2,9.2H250.1c-5.1,0-9.2-4.1-9.2-9.2
			c0-5.1,4.1-9.2,9.2-9.2h118.3C373.1,247.3,377.7,251.4,377.7,256.6L377.7,256.6z M240.3,200.5c0-5.1,4.1-9.2,9.2-9.2h117.3
			c5.1,0,9.2,4.1,9.2,9.2c0,5.1-4.1,9.2-9.2,9.2H249.6C244.5,209.8,240.3,205.7,240.3,200.5L240.3,200.5z M240.3,143.9
			c0-5.1,4.1-9.2,9.2-9.2h117.3c5.1,0,9.2,4.1,9.2,9.2c0,5.1-4.1,9.2-9.2,9.2H249.6C244.5,153.7,240.3,149.1,240.3,143.9
			L240.3,143.9z M206.3,143.9c0,5.7-4.6,10.3-10.3,10.3c-5.7,0-10.3-4.6-10.3-10.3c0-5.7,4.6-10.3,10.3-10.3
			C201.7,133.6,206.3,138.3,206.3,143.9L206.3,143.9z M206.3,200.5c0,5.7-4.6,10.3-10.3,10.3c-5.7,0-10.3-4.6-10.3-10.3
			c0-5.7,4.6-10.3,10.3-10.3C201.7,189.7,206.3,194.3,206.3,200.5L206.3,200.5z M206.3,255.5c0,5.7-4.6,10.3-10.3,10.3
			c-5.7,0-10.3-4.6-10.3-10.3c0-5.7,4.6-10.3,10.3-10.3C201.7,244.8,206.3,249.4,206.3,255.5L206.3,255.5z M206.3,311.6
			c0,5.7-4.6,10.3-10.3,10.3c-5.7,0-10.3-4.6-10.3-10.3c0-5.7,4.6-10.3,10.3-10.3C201.7,301.4,206.3,306,206.3,311.6L206.3,311.6z
			 M206.3,369.8c0,5.7-4.6,10.3-10.3,10.3c-5.7,0-10.3-4.6-10.3-10.3s4.6-10.3,10.3-10.3C201.7,359.5,206.3,364.1,206.3,369.8
			L206.3,369.8z M206.3,426.3c0,5.7-4.6,10.3-10.3,10.3c-5.7,0-10.3-4.6-10.3-10.3c0-5.7,4.6-10.3,10.3-10.3
			C201.7,415.5,206.3,420.7,206.3,426.3L206.3,426.3z M206.3,426.3"/>
	</g>
</g>
</svg>
