<?xml version="1.0" encoding="utf-8"?>
<!-- Generator: Adobe Illustrator 21.1.0, SVG Export Plug-In . SVG Version: 6.00 Build 0)  -->
<svg version="1.1" id="Layer_1" xmlns="http://www.w3.org/2000/svg" xmlns:xlink="http://www.w3.org/1999/xlink" x="0px" y="0px"
	 viewBox="0 0 566.9 566.9" style="enable-background:new 0 0 566.9 566.9;" xml:space="preserve">
<style type="text/css">
	.st0{fill:none;}
	.st1{fill:url(#SVGID_1_);}
	.st2{fill:url(#SVGID_2_);}
</style>
<g>
	<path class="st0" d="M404.1,199.4l-61.9-61.9c-1.4-1.4-4.7-3.2-8.1-4.4v74.3h74.3C407.2,204.2,405.5,200.8,404.1,199.4z"/>
	<path class="st0" d="M308.8,213.9v-82.3H156.9v303.7H410V232.8h-82.3C317.3,232.8,308.8,224.3,308.8,213.9z M350.5,279.3h-13.2
		l-38.6,55.7l38,54h13.4v21h-57.5v-21h15l-21.2-31.8c-1.4-2-2.6-3.2-3.4-4.8c-0.4-0.6-0.8-1.2-1-2h-0.4c-0.6,0-1.8,3-4.2,6.7
		l-20.4,31.8H272v21h-55.6v-21h13.4l38.4-56l-37.4-53.8h-13.4v-21.2h57.3v21.2h-15l21,31.4c1.6,1.8,2.6,3.1,3.4,4.5
		c0.4,0.6,0.8,1.2,1,2h0.4c0,0.2,1.8-2.8,4.2-6.5l20.4-31.4h-14.6v-21.2h55.2V279.3z"/>
	<linearGradient id="SVGID_1_" gradientUnits="userSpaceOnUse" x1="356.5626" y1="389.1667" x2="205.7493" y2="275.5207">
		<stop  offset="0" style="stop-color:#5CC1D2"/>
		<stop  offset="0.29" style="stop-color:#4AB8A6"/>
		<stop  offset="1" style="stop-color:#0CA071"/>
	</linearGradient>
	<path class="st1" d="M295.3,279.3H310l-20.4,31.4c-2.4,3.7-4.2,6.7-4.2,6.5h-0.4c-0.2-0.8-0.6-1.4-1-2c-0.8-1.4-1.8-2.8-3.4-4.5
		l-21-31.4h15v-21.2h-57.3v21.2h13.4l37.4,53.8l-38.4,56h-13.4v21H272v-21h-14.8l20.4-31.8c2.4-3.8,3.6-6.7,4.2-6.7h0.4
		c0.2,0.8,0.6,1.4,1,2c0.8,1.6,2,2.8,3.4,4.8l21.2,31.8h-15v21h57.5v-21h-13.4l-38-54l38.6-55.7h13.2v-21.2h-55.2V279.3z"/>
	<linearGradient id="SVGID_2_" gradientUnits="userSpaceOnUse" x1="431.7826" y1="425.3145" x2="95.0769" y2="171.5886">
		<stop  offset="0" style="stop-color:#5CC1D2"/>
		<stop  offset="0.29" style="stop-color:#4AB8A6"/>
		<stop  offset="1" style="stop-color:#0CA071"/>
	</linearGradient>
	<path class="st2" d="M421.9,181.4l-61.7-61.7c-7.3-7.3-22-13.4-32.4-13.4H150.6c-10.5,0-19,8.5-19,19v316.4c0,10.5,8.5,19,19,19
		h265.7c10.5,0,19-8.5,19-19V213.9C435.3,203.4,429.2,188.7,421.9,181.4z M334.1,133.2c3.4,1.2,6.7,3,8.1,4.4l61.9,61.9
		c1.4,1.4,3.2,4.7,4.4,8.1h-74.3V133.2z M410,435.3H156.9V131.6h151.9v82.3c0,10.5,8.5,19,19,19H410V435.3z"/>
</g>
</svg>
