<?xml version="1.0" encoding="utf-8"?>
<!-- Generator: Adobe Illustrator 21.1.0, SVG Export Plug-In . SVG Version: 6.00 Build 0)  -->
<svg version="1.1" id="Layer_1" xmlns="http://www.w3.org/2000/svg" xmlns:xlink="http://www.w3.org/1999/xlink" x="0px" y="0px"
	 viewBox="0 0 425.2 76.5" style="enable-background:new 0 0 425.2 76.5;" xml:space="preserve">
<style type="text/css">
	.st0{fill:none;}
	.st1{fill:url(#SVGID_1_);}
	.st2{fill:url(#SVGID_2_);}
	.st3{fill:#706F6F;}
	.st4{fill:#9D9D9C;}
</style>
<g>
	<g>
		<path class="st0" d="M58.2,20.1L45,6.8c-0.3-0.3-1-0.7-1.7-0.9v16.1h15.9C58.9,21.1,58.5,20.4,58.2,20.1z"/>
		<path class="st0" d="M37.9,23.3V5.5H5.5V71h54V27.3H41.9C39.7,27.3,37.9,25.5,37.9,23.3z M46.8,37.4H44l-8.2,12l8.1,11.6h2.9v4.5
			H34.5v-4.5h3.2l-4.5-6.9c-0.3-0.4-0.5-0.7-0.7-1c-0.1-0.1-0.2-0.3-0.2-0.4h-0.1c-0.1,0-0.4,0.6-0.9,1.4L27,61.1h3.2v4.5h-12v-4.5
			h2.9l8.2-12.1l-8-11.6h-2.9v-4.5h12.2v4.5h-3.2l4.5,6.8c0.3,0.4,0.5,0.7,0.7,1c0.1,0.1,0.2,0.3,0.2,0.4h0.1c0,0,0.4-0.6,0.9-1.4
			l4.4-6.8h-3.1v-4.5h11.8L46.8,37.4L46.8,37.4L46.8,37.4z"/>
		
			<linearGradient id="SVGID_1_" gradientUnits="userSpaceOnUse" x1="48.1168" y1="505.8432" x2="15.7679" y2="530.2198" gradientTransform="matrix(1 0 0 -1 0 566.93)">
			<stop  offset="0" style="stop-color:#5CC1D3"/>
			<stop  offset="0.29" style="stop-color:#4AB8A6"/>
			<stop  offset="1" style="stop-color:#0AA071"/>
		</linearGradient>
		<path class="st1" d="M35,37.4h3.1l-4.4,6.8c-0.5,0.8-0.9,1.4-0.9,1.4h-0.1c0-0.2-0.1-0.3-0.2-0.4c-0.2-0.3-0.4-0.6-0.7-1l-4.5-6.8
			h3.2v-4.7H18.3v4.5h2.9l8,11.6L21,61.1h-2.9v4.5H30v-4.5h-3.2l4.4-6.9c0.5-0.8,0.8-1.4,0.9-1.4h0.1c0,0.2,0.1,0.3,0.2,0.4
			c0.2,0.3,0.4,0.6,0.7,1l4.5,6.9h-3.2v4.5h12.3v-4.5h-2.9l-8.1-11.6l8.2-12h2.8v-4.5H34.9L35,37.4L35,37.4L35,37.4z"/>
		
			<linearGradient id="SVGID_2_" gradientUnits="userSpaceOnUse" x1="64.2939" y1="498.2111" x2="-7.9284" y2="552.6346" gradientTransform="matrix(1 0 0 -1 0 566.93)">
			<stop  offset="0" style="stop-color:#5CC1D3"/>
			<stop  offset="0.29" style="stop-color:#4AB8A6"/>
			<stop  offset="1" style="stop-color:#0AA071"/>
		</linearGradient>
		<path class="st2" d="M62,16.3L48.8,2.9C47.2,1.3,44.1,0,41.9,0H4.1C1.9,0,0,1.8,0,4.1v68.2c0,2.2,1.8,4.1,4.1,4.1h56.7
			c2.2,0,4.1-1.8,4.1-4.1V23.3C64.9,21,63.6,17.8,62,16.3z M43.3,5.9C44,6.2,44.7,6.5,45,6.8l13.2,13.3c0.3,0.3,0.7,1,0.9,1.7H43.2
			L43.3,5.9L43.3,5.9z M59.5,71.1h-54V5.6h32.4v17.8c0,2.2,1.8,4.1,4.1,4.1h17.6L59.5,71.1L59.5,71.1z"/>
	</g>
	<g>
		<g>
			<path class="st3" d="M116,30.4h-4L105.5,19h-0.1c0.1,2,0.2,3.4,0.2,4.3v7.1h-2.8V15.3h4l6.4,11.4h0.1c-0.1-1.9-0.2-3.3-0.2-4.1
				v-7.2h2.9V30.4z"/>
			<path class="st3" d="M127.6,30.4l-0.4-1.5H127c-0.3,0.5-0.8,0.9-1.4,1.2c-0.6,0.3-1.3,0.4-2.1,0.4c-1.3,0-2.4-0.4-3-1.1
				c-0.7-0.7-1-1.8-1-3.1v-7.6h3.1v6.8c0,0.8,0.1,1.4,0.4,1.9c0.3,0.4,0.8,0.6,1.4,0.6c0.9,0,1.5-0.3,1.9-0.9s0.6-1.5,0.6-2.9v-5.5
				h3.1v11.5h-2.4V30.4z"/>
			<path class="st3" d="M143.5,30.4h-3.1v-6.8c0-0.8-0.1-1.4-0.4-1.9c-0.3-0.4-0.7-0.6-1.3-0.6c-0.8,0-1.4,0.3-1.7,0.9
				c-0.4,0.6-0.5,1.6-0.5,2.9v5.5h-3.1V18.9h2.4l0.4,1.5h0.2c0.3-0.5,0.8-0.9,1.3-1.2s1.2-0.4,2-0.4c1.7,0,2.9,0.6,3.5,1.7h0.3
				c0.3-0.5,0.8-0.9,1.4-1.2c0.6-0.3,1.3-0.4,2-0.4c1.3,0,2.3,0.3,2.9,1c0.7,0.7,1,1.7,1,3.2v7.6h-3.1V24c0-0.8-0.1-1.4-0.4-1.9
				c-0.3-0.4-0.7-0.6-1.3-0.6c-0.8,0-1.3,0.3-1.7,0.8c-0.4,0.5-0.6,1.4-0.6,2.6v5.6H143.5z"/>
			<path class="st3" d="M164.1,30.4H161v-6.8c0-0.8-0.1-1.4-0.4-1.9c-0.3-0.4-0.7-0.6-1.3-0.6c-0.8,0-1.4,0.3-1.7,0.9
				c-0.4,0.6-0.5,1.6-0.5,2.9v5.5H154V18.9h2.4l0.4,1.5h0.2c0.3-0.5,0.8-0.9,1.3-1.2c0.6-0.3,1.2-0.4,2-0.4c1.7,0,2.9,0.6,3.5,1.7
				h0.3c0.3-0.5,0.8-0.9,1.4-1.2c0.6-0.3,1.3-0.4,2-0.4c1.3,0,2.3,0.3,2.9,1c0.7,0.7,1,1.7,1,3.2v7.6h-3.1V24c0-0.8-0.1-1.4-0.4-1.9
				c-0.3-0.4-0.7-0.6-1.3-0.6c-0.8,0-1.3,0.3-1.7,0.8s-0.6,1.4-0.6,2.6v5.6H164.1z"/>
			<path class="st3" d="M179.6,30.6c-1.8,0-3.3-0.5-4.3-1.5c-1-1-1.6-2.5-1.6-4.3c0-1.9,0.5-3.4,1.4-4.4c1-1,2.3-1.6,4-1.6
				c1.6,0,2.9,0.5,3.8,1.4c0.9,0.9,1.4,2.2,1.4,3.8v1.5h-7.4c0,0.9,0.3,1.6,0.8,2.1s1.2,0.7,2.1,0.7c0.7,0,1.3-0.1,2-0.2
				c0.6-0.1,1.3-0.4,1.9-0.7v2.4c-0.5,0.3-1.1,0.5-1.7,0.6C181.2,30.6,180.5,30.6,179.6,30.6z M179.1,20.9c-0.7,0-1.2,0.2-1.6,0.6
				c-0.4,0.4-0.6,1-0.6,1.8h4.4c0-0.8-0.2-1.4-0.6-1.8C180.3,21.1,179.8,20.9,179.1,20.9z"/>
			<path class="st3" d="M193.2,18.7c0.4,0,0.8,0,1.1,0.1l-0.2,2.9c-0.3-0.1-0.6-0.1-0.9-0.1c-1,0-1.8,0.3-2.3,0.8
				c-0.6,0.5-0.8,1.2-0.8,2.1v5.9H187V18.9h2.4l0.5,1.9h0.2c0.4-0.6,0.8-1.2,1.4-1.5C192.1,19,192.5,18.7,193.2,18.7z"/>
			<path class="st3" d="M196.2,15.9c0-1,0.6-1.5,1.7-1.5c1.1,0,1.7,0.5,1.7,1.5c0,0.5-0.1,0.9-0.4,1.1c-0.3,0.3-0.7,0.4-1.3,0.4
				C196.7,17.5,196.2,17,196.2,15.9z M199.4,30.4h-3.1V18.9h3.1V30.4z"/>
			<path class="st3" d="M213.2,30.4h-3.1v-6.8c0-0.8-0.1-1.4-0.4-1.9c-0.3-0.4-0.8-0.6-1.4-0.6c-0.9,0-1.5,0.3-1.9,0.9
				c-0.4,0.6-0.6,1.5-0.6,2.9v5.5h-3.1V18.9h2.4l0.4,1.5h0.2c0.3-0.6,0.8-1,1.4-1.3c0.6-0.3,1.3-0.4,2.1-0.4c1.3,0,2.3,0.4,3,1.1
				c0.7,0.7,1,1.8,1,3.1V30.4z"/>
			<path class="st3" d="M226.3,18.9v1.6l-1.8,0.5c0.3,0.5,0.5,1.1,0.5,1.7c0,1.2-0.4,2.2-1.3,2.9c-0.9,0.7-2,1-3.6,1h-0.6l-0.5-0.1
				c-0.3,0.2-0.5,0.5-0.5,0.8c0,0.5,0.6,0.7,1.7,0.7h1.9c1.3,0,2.2,0.3,2.9,0.8c0.7,0.5,1,1.3,1,2.4c0,1.3-0.6,2.4-1.7,3.1
				c-1.1,0.7-2.7,1.1-4.8,1.1c-1.6,0-2.8-0.3-3.7-0.8c-0.8-0.6-1.3-1.3-1.3-2.3c0-0.7,0.2-1.3,0.6-1.7c0.4-0.5,1.1-0.8,1.9-1
				c-0.3-0.1-0.6-0.4-0.8-0.7c-0.2-0.3-0.4-0.6-0.4-1c0-0.4,0.1-0.8,0.4-1.1c0.3-0.3,0.6-0.6,1.1-0.9c-0.6-0.3-1.1-0.7-1.4-1.2
				c-0.4-0.6-0.5-1.2-0.5-2c0-1.2,0.4-2.2,1.2-2.9c0.8-0.7,2-1,3.5-1c0.3,0,0.7,0,1.1,0.1c0.4,0.1,0.7,0.1,0.8,0.1h4.3V18.9z
				 M217.5,32.2c0,0.4,0.2,0.8,0.6,1c0.4,0.2,1,0.4,1.7,0.4c1.1,0,2-0.2,2.6-0.5c0.6-0.3,1-0.7,1-1.3c0-0.4-0.2-0.7-0.6-0.9
				c-0.4-0.2-1-0.2-1.7-0.2h-1.6c-0.6,0-1.1,0.1-1.4,0.4C217.7,31.3,217.5,31.6,217.5,32.2z M218.6,22.7c0,0.6,0.1,1.1,0.4,1.5
				c0.3,0.4,0.7,0.5,1.3,0.5c0.6,0,1-0.2,1.3-0.5c0.3-0.4,0.4-0.9,0.4-1.5c0-1.4-0.6-2.1-1.7-2.1C219.2,20.6,218.6,21.3,218.6,22.7z
				"/>
		</g>
		<g>
			<path class="st4" d="M108.5,58.5h-5.8V47.7h5.8v0.7h-5.1v4h4.8v0.7h-4.8v4.7h5.1V58.5z"/>
			<path class="st4" d="M114,58.7c-1.2,0-2.1-0.4-2.7-1.1c-0.6-0.7-1-1.7-1-3s0.3-2.3,0.9-3c0.6-0.8,1.5-1.1,2.5-1.1
				c0.9,0,1.7,0.3,2.2,1c0.5,0.7,0.8,1.5,0.8,2.7v0.6H111c0,1.1,0.3,1.9,0.8,2.5c0.5,0.6,1.2,0.9,2.1,0.9c0.5,0,0.9,0,1.2-0.1
				c0.3-0.1,0.8-0.2,1.3-0.4v0.7c-0.4,0.2-0.9,0.3-1.2,0.4C114.9,58.6,114.4,58.7,114,58.7z M113.8,51.1c-0.8,0-1.4,0.3-1.8,0.8
				c-0.5,0.5-0.7,1.2-0.8,2.2h4.9c0-0.9-0.2-1.6-0.6-2.2C115,51.3,114.5,51.1,113.8,51.1z"/>
			<path class="st4" d="M124.5,58.5v-5.3c0-0.8-0.2-1.4-0.5-1.7c-0.3-0.4-0.9-0.5-1.6-0.5c-0.9,0-1.6,0.2-2.1,0.7
				c-0.4,0.5-0.7,1.3-0.7,2.3v4.4h-0.7v-8h0.6l0.1,1.1l0,0c0.5-0.8,1.4-1.2,2.8-1.2c1.8,0,2.7,1,2.7,2.9v5.3h-0.6V58.5z"/>
			<path class="st4" d="M137.9,50.6v0.5l-1.6,0.1c0.4,0.5,0.7,1.1,0.7,1.8c0,0.8-0.3,1.4-0.8,1.9c-0.5,0.5-1.2,0.7-2,0.7
				c-0.4,0-0.6,0-0.8,0c-0.3,0.2-0.5,0.3-0.7,0.5c-0.2,0.2-0.2,0.4-0.2,0.7c0,0.3,0.1,0.4,0.3,0.6c0.2,0.1,0.5,0.2,1,0.2h1.4
				c0.9,0,1.5,0.2,2,0.5s0.7,0.9,0.7,1.5c0,0.8-0.3,1.5-1,1.9c-0.7,0.5-1.6,0.7-2.9,0.7c-1,0-1.8-0.2-2.3-0.6
				c-0.5-0.4-0.8-0.9-0.8-1.6c0-0.5,0.2-1,0.5-1.4c0.3-0.4,0.8-0.6,1.4-0.7c-0.2-0.1-0.4-0.2-0.6-0.4c-0.1-0.2-0.2-0.4-0.2-0.6
				c0-0.5,0.3-1,1-1.4c-0.5-0.2-0.8-0.5-1.1-0.9c-0.3-0.4-0.4-0.9-0.4-1.4c0-0.8,0.3-1.4,0.8-1.9c0.5-0.5,1.2-0.7,2-0.7
				c0.5,0,0.9,0.1,1.2,0.2h2.4V50.6z M131.5,60c0,1.1,0.8,1.6,2.4,1.6c2.1,0,3.1-0.7,3.1-2c0-0.5-0.2-0.8-0.5-1
				c-0.3-0.2-0.9-0.3-1.6-0.3h-1.3C132.2,58.1,131.5,58.7,131.5,60z M132.1,53c0,0.6,0.2,1.1,0.6,1.4c0.4,0.3,0.9,0.5,1.5,0.5
				c0.7,0,1.2-0.2,1.5-0.5c0.3-0.3,0.5-0.8,0.5-1.5s-0.2-1.2-0.5-1.5c-0.4-0.3-0.9-0.5-1.5-0.5c-0.6,0-1.1,0.2-1.5,0.5
				C132.3,51.9,132.1,52.4,132.1,53z"/>
			<path class="st4" d="M142.7,58.7c-1.2,0-2.1-0.4-2.7-1.1c-0.6-0.7-1-1.7-1-3s0.3-2.3,0.9-3c0.6-0.8,1.5-1.1,2.5-1.1
				c0.9,0,1.7,0.3,2.2,1c0.5,0.7,0.8,1.5,0.8,2.7v0.6h-5.7c0,1.1,0.3,1.9,0.8,2.5c0.5,0.6,1.2,0.9,2.1,0.9c0.5,0,0.9,0,1.2-0.1
				c0.3-0.1,0.8-0.2,1.3-0.4v0.7c-0.4,0.2-0.9,0.3-1.2,0.4C143.6,58.6,143.2,58.7,142.7,58.7z M142.5,51.1c-0.8,0-1.4,0.3-1.8,0.8
				c-0.5,0.5-0.7,1.2-0.8,2.2h4.9c0-0.9-0.2-1.6-0.6-2.2C143.8,51.3,143.2,51.1,142.5,51.1z"/>
			<path class="st4" d="M157.7,58.5v-5.3c0-0.8-0.2-1.3-0.5-1.7c-0.3-0.4-0.8-0.5-1.4-0.5c-0.8,0-1.4,0.2-1.8,0.7
				c-0.4,0.4-0.6,1.2-0.6,2.1v4.8h-0.7v-5.5c0-1.3-0.6-2-1.8-2c-0.8,0-1.4,0.2-1.8,0.7c-0.4,0.5-0.6,1.3-0.6,2.3v4.4h-0.7v-8h0.6
				l0.2,1.1l0,0c0.2-0.4,0.5-0.7,0.9-0.9c0.4-0.2,0.8-0.3,1.3-0.3c1.3,0,2.1,0.5,2.4,1.4l0,0c0.3-0.5,0.6-0.8,1-1
				c0.4-0.2,0.9-0.4,1.5-0.4c0.9,0,1.5,0.2,2,0.7c0.4,0.5,0.7,1.2,0.7,2.2v5.3h-0.7V58.5z"/>
			<path class="st4" d="M165.8,58.5l-0.2-1.3h-0.1c-0.4,0.5-0.8,0.9-1.2,1.1c-0.4,0.2-0.9,0.3-1.5,0.3c-0.8,0-1.4-0.2-1.8-0.6
				c-0.4-0.4-0.7-1-0.7-1.7c0-0.8,0.3-1.4,1-1.8c0.6-0.4,1.6-0.7,2.8-0.7h1.5v-0.5c0-0.8-0.2-1.3-0.5-1.7c-0.3-0.4-0.8-0.6-1.5-0.6
				c-0.7,0-1.5,0.2-2.3,0.6L161,51c0.9-0.4,1.7-0.6,2.6-0.6c0.9,0,1.5,0.2,2,0.7c0.4,0.5,0.6,1.2,0.6,2.1v5.4L165.8,58.5L165.8,58.5
				z M162.9,58c0.8,0,1.5-0.2,2-0.7c0.5-0.5,0.7-1.2,0.7-2v-0.8l-1.4,0.1c-1.1,0.1-1.9,0.2-2.4,0.5s-0.7,0.8-0.7,1.4
				c0,0.5,0.2,0.9,0.5,1.2C161.9,57.9,162.3,58,162.9,58z"/>
			<path class="st4" d="M169.6,55l4.1-4.5h0.9l-3.1,3.4l3.4,4.7H174l-3-4l-1.3,1.2v2.8H169V47h0.7v5.8L169.6,55L169.6,55z"/>
			<path class="st4" d="M176.8,55l4.1-4.5h0.9l-3.1,3.4l3.4,4.7h-0.9l-3-4l-1.3,1.2v2.8h-0.7V47h0.7v5.8L176.8,55L176.8,55z"/>
			<path class="st4" d="M186.6,58.7c-1.2,0-2.1-0.4-2.7-1.1c-0.6-0.7-1-1.7-1-3s0.3-2.3,0.9-3c0.6-0.8,1.5-1.1,2.5-1.1
				c0.9,0,1.7,0.3,2.2,1c0.5,0.7,0.8,1.5,0.8,2.7v0.6h-5.7c0,1.1,0.3,1.9,0.8,2.5c0.5,0.6,1.2,0.9,2.1,0.9c0.5,0,0.9,0,1.2-0.1
				c0.3-0.1,0.8-0.2,1.3-0.4v0.7c-0.4,0.2-0.9,0.3-1.2,0.4C187.5,58.6,187,58.7,186.6,58.7z M186.4,51.1c-0.8,0-1.4,0.3-1.8,0.8
				c-0.5,0.5-0.7,1.2-0.8,2.2h4.9c0-0.9-0.2-1.6-0.6-2.2C187.6,51.3,187.1,51.1,186.4,51.1z"/>
			<path class="st4" d="M192.3,58.5h-0.7V47h0.7V58.5z"/>
			<path class="st4" d="M194.9,48.3c0-0.5,0.2-0.7,0.5-0.7c0.2,0,0.3,0.1,0.4,0.2c0.1,0.1,0.1,0.3,0.1,0.5s0,0.4-0.1,0.5
				c-0.1,0.1-0.2,0.2-0.4,0.2C195,49,194.9,48.7,194.9,48.3z M195.7,58.5H195v-8h0.7V58.5z"/>
			<path class="st4" d="M197.3,62.2c-0.4,0-0.7-0.1-1-0.2v-0.6c0.3,0.1,0.7,0.1,0.9,0.1c0.7,0,1.1-0.4,1.1-1.3v-9.7h0.7v9.6
				c0,0.7-0.2,1.2-0.5,1.5C198.3,62,197.9,62.2,197.3,62.2z M198.2,48.3c0-0.5,0.2-0.7,0.5-0.7c0.2,0,0.3,0.1,0.4,0.2
				c0.1,0.1,0.1,0.3,0.1,0.5s0,0.4-0.1,0.5c-0.1,0.1-0.2,0.2-0.4,0.2C198.4,49,198.2,48.7,198.2,48.3z"/>
			<path class="st4" d="M202.4,55l4.1-4.5h0.9l-3.2,3.5l3.4,4.7h-0.9l-3-4l-1.3,1.2v2.8h-0.7V47.1h0.7v5.8V55L202.4,55z"/>
			<path class="st4" d="M212.1,58.7c-1.2,0-2.1-0.4-2.7-1.1c-0.6-0.7-1-1.7-1-3s0.3-2.3,0.9-3c0.6-0.8,1.5-1.1,2.5-1.1
				c0.9,0,1.7,0.3,2.2,1c0.5,0.7,0.8,1.5,0.8,2.7v0.6h-5.7c0,1.1,0.3,1.9,0.8,2.5c0.5,0.6,1.2,0.9,2.1,0.9c0.5,0,0.9,0,1.2-0.1
				c0.3-0.1,0.8-0.2,1.3-0.4v0.7c-0.4,0.2-0.9,0.3-1.2,0.4C213,58.6,212.5,58.7,212.1,58.7z M211.9,51.1c-0.8,0-1.4,0.3-1.8,0.8
				c-0.5,0.5-0.7,1.2-0.8,2.2h4.9c0-0.9-0.2-1.6-0.6-2.2C213.1,51.3,212.6,51.1,211.9,51.1z"/>
			<path class="st4" d="M223.9,50.3c0.6,0,1.1,0.1,1.5,0.3c0.4,0.2,0.8,0.6,1.1,1.1l0,0c0-0.6,0-1.2,0-1.8V47h0.7v11.5h-0.5
				l-0.2-1.2h-0.1c-0.6,0.9-1.5,1.4-2.6,1.4c-1.1,0-1.9-0.3-2.5-1c-0.6-0.7-0.9-1.7-0.9-3c0-1.4,0.3-2.4,0.9-3.1
				C222,50.8,222.8,50.3,223.9,50.3z M223.9,51.1c-0.9,0-1.5,0.3-2,0.9c-0.4,0.6-0.7,1.5-0.7,2.7c0,2.3,0.9,3.4,2.6,3.4
				c0.9,0,1.6-0.3,2-0.8c0.4-0.5,0.6-1.4,0.6-2.6v-0.1c0-1.2-0.2-2.1-0.6-2.6C225.5,51.3,224.8,51.1,223.9,51.1z"/>
			<path class="st4" d="M234.7,58.5l-0.2-1.3h-0.1c-0.4,0.5-0.8,0.9-1.2,1.1c-0.4,0.2-0.9,0.3-1.5,0.3c-0.8,0-1.4-0.2-1.8-0.6
				c-0.4-0.4-0.7-1-0.7-1.7c0-0.8,0.3-1.4,1-1.8c0.6-0.4,1.6-0.7,2.8-0.7h1.5v-0.5c0-0.8-0.2-1.3-0.5-1.7c-0.3-0.4-0.8-0.6-1.5-0.6
				s-1.5,0.2-2.3,0.6l-0.3-0.6c0.9-0.4,1.7-0.6,2.6-0.6c0.9,0,1.5,0.2,2,0.7c0.4,0.5,0.6,1.2,0.6,2.1v5.4L234.7,58.5L234.7,58.5z
				 M231.8,58c0.8,0,1.5-0.2,2-0.7c0.5-0.5,0.7-1.2,0.7-2v-0.8l-1.4,0.1c-1.1,0.1-1.9,0.2-2.4,0.5s-0.7,0.8-0.7,1.4
				c0,0.5,0.2,0.9,0.5,1.2C230.8,57.9,231.2,58,231.8,58z"/>
			<path class="st4" d="M239.9,58c0.5,0,0.9,0,1.2-0.1v0.6c-0.4,0.1-0.8,0.2-1.2,0.2c-0.7,0-1.2-0.2-1.6-0.6c-0.3-0.4-0.5-1-0.5-1.8
				v-5.2h-1.2v-0.4l1.2-0.3l0.4-1.8h0.4v1.9h2.3v0.6h-2.3v5.1c0,0.6,0.1,1.1,0.3,1.4C239.1,57.9,239.4,58,239.9,58z"/>
			<path class="st4" d="M247.6,58.5l-0.2-1.3h-0.1c-0.4,0.5-0.8,0.9-1.2,1.1c-0.4,0.2-0.9,0.3-1.5,0.3c-0.8,0-1.4-0.2-1.8-0.6
				c-0.4-0.4-0.7-1-0.7-1.7c0-0.8,0.3-1.4,1-1.8c0.6-0.4,1.6-0.7,2.8-0.7h1.5v-0.5c0-0.8-0.2-1.3-0.5-1.7c-0.3-0.4-0.8-0.6-1.5-0.6
				s-1.5,0.2-2.3,0.6l-0.3-0.6c0.9-0.4,1.7-0.6,2.6-0.6c0.9,0,1.5,0.2,2,0.7c0.4,0.5,0.6,1.2,0.6,2.1v5.4L247.6,58.5L247.6,58.5z
				 M244.7,58c0.8,0,1.5-0.2,2-0.7c0.5-0.5,0.7-1.2,0.7-2v-0.8l-1.4,0.1c-1.1,0.1-1.9,0.2-2.4,0.5s-0.7,0.8-0.7,1.4
				c0,0.5,0.2,0.9,0.5,1.2C243.7,57.9,244.2,58,244.7,58z"/>
			<path class="st4" d="M264.6,58.5v-5.3c0-0.8-0.2-1.3-0.5-1.7c-0.3-0.4-0.8-0.5-1.4-0.5c-0.8,0-1.4,0.2-1.8,0.7
				c-0.4,0.4-0.6,1.2-0.6,2.1v4.8h-0.7v-5.5c0-1.3-0.6-2-1.8-2c-0.8,0-1.4,0.2-1.8,0.7c-0.4,0.5-0.6,1.3-0.6,2.3v4.4h-0.7v-8h0.6
				l0.2,1.1l0,0c0.2-0.4,0.5-0.7,0.9-0.9c0.4-0.2,0.8-0.3,1.3-0.3c1.3,0,2.1,0.5,2.4,1.4l0,0c0.3-0.5,0.6-0.8,1-1
				c0.4-0.2,0.9-0.4,1.5-0.4c0.9,0,1.5,0.2,2,0.7c0.4,0.5,0.7,1.2,0.7,2.2v5.3h-0.7V58.5z"/>
			<path class="st4" d="M271.1,58.7c-1.2,0-2.1-0.4-2.7-1.1c-0.6-0.7-1-1.7-1-3s0.3-2.3,0.9-3c0.6-0.8,1.5-1.1,2.5-1.1
				c0.9,0,1.7,0.3,2.2,1c0.5,0.7,0.8,1.5,0.8,2.7v0.6h-5.7c0,1.1,0.3,1.9,0.8,2.5c0.5,0.6,1.2,0.9,2.1,0.9c0.5,0,0.9,0,1.2-0.1
				s0.8-0.2,1.3-0.4v0.7c-0.4,0.2-0.9,0.3-1.2,0.4C271.9,58.6,271.5,58.7,271.1,58.7z M270.8,51.1c-0.8,0-1.4,0.3-1.8,0.8
				c-0.5,0.5-0.7,1.2-0.8,2.2h4.9c0-0.9-0.2-1.6-0.6-2.2C272.1,51.3,271.5,51.1,270.8,51.1z"/>
			<path class="st4" d="M279.2,50.3c0.3,0,0.7,0,1.1,0.1l-0.1,0.7c-0.3-0.1-0.7-0.1-1-0.1c-0.7,0-1.2,0.3-1.7,0.9
				c-0.4,0.6-0.7,1.3-0.7,2.2v4.4h-0.7v-8h0.6l0.1,1.4h0.1c0.3-0.6,0.7-1,1-1.2C278.2,50.5,278.7,50.3,279.2,50.3z"/>
			<path class="st4" d="M288.1,50.6v0.5l-1.6,0.1c0.4,0.5,0.7,1.1,0.7,1.8c0,0.8-0.3,1.4-0.8,1.9c-0.5,0.5-1.2,0.7-2.1,0.7
				c-0.4,0-0.6,0-0.8,0c-0.3,0.2-0.5,0.3-0.7,0.5c-0.2,0.2-0.2,0.4-0.2,0.7c0,0.3,0.1,0.4,0.3,0.6c0.2,0.1,0.5,0.2,1,0.2h1.4
				c0.9,0,1.5,0.2,2,0.5s0.7,0.9,0.7,1.5c0,0.8-0.3,1.5-1,1.9c-0.7,0.5-1.6,0.7-2.9,0.7c-1,0-1.8-0.2-2.3-0.6
				c-0.5-0.4-0.8-0.9-0.8-1.6c0-0.5,0.2-1,0.5-1.4c0.3-0.4,0.8-0.6,1.4-0.7c-0.2-0.1-0.4-0.2-0.6-0.4c-0.1-0.2-0.2-0.4-0.2-0.6
				c0-0.5,0.3-1,1-1.4c-0.5-0.2-0.8-0.5-1.1-0.9c-0.3-0.4-0.4-0.9-0.4-1.4c0-0.8,0.3-1.4,0.8-1.9c0.5-0.5,1.2-0.7,2-0.7
				c0.5,0,0.9,0.1,1.2,0.2h2.5V50.6z M281.6,60c0,1.1,0.8,1.6,2.4,1.6c2.1,0,3.1-0.7,3.1-2c0-0.5-0.2-0.8-0.5-1s-0.9-0.3-1.6-0.3
				h-1.3C282.4,58.1,281.6,58.7,281.6,60z M282.3,53c0,0.6,0.2,1.1,0.6,1.4c0.4,0.3,0.9,0.5,1.5,0.5c0.7,0,1.2-0.2,1.5-0.5
				c0.4-0.3,0.5-0.8,0.5-1.5s-0.2-1.2-0.5-1.5c-0.4-0.3-0.9-0.5-1.5-0.5c-0.6,0-1.1,0.2-1.5,0.5C282.4,51.9,282.3,52.4,282.3,53z"/>
			<path class="st4" d="M292.9,58.7c-1.2,0-2.1-0.4-2.7-1.1c-0.6-0.7-1-1.7-1-3s0.3-2.3,0.9-3c0.6-0.8,1.5-1.1,2.5-1.1
				c0.9,0,1.7,0.3,2.2,1c0.5,0.7,0.8,1.5,0.8,2.7v0.6h-5.7c0,1.1,0.3,1.9,0.8,2.5c0.5,0.6,1.2,0.9,2.1,0.9c0.5,0,0.9,0,1.2-0.1
				s0.8-0.2,1.3-0.4v0.7c-0.4,0.2-0.9,0.3-1.2,0.4C293.8,58.6,293.4,58.7,292.9,58.7z M292.7,51.1c-0.8,0-1.4,0.3-1.8,0.8
				c-0.5,0.5-0.7,1.2-0.8,2.2h4.9c0-0.9-0.2-1.6-0.6-2.2C294,51.3,293.4,51.1,292.7,51.1z"/>
			<path class="st4" d="M303.9,58c0.5,0,0.9,0,1.2-0.1v0.6c-0.4,0.1-0.8,0.2-1.2,0.2c-0.7,0-1.2-0.2-1.6-0.6c-0.3-0.4-0.5-1-0.5-1.8
				v-5.2h-1.2v-0.4l1.2-0.3l0.4-1.8h0.4v1.9h2.3v0.6h-2.3v5.1c0,0.6,0.1,1.1,0.3,1.4C303.1,57.9,303.4,58,303.9,58z"/>
			<path class="st4" d="M313.4,54.5c0,1.3-0.3,2.3-0.9,3s-1.5,1.1-2.6,1.1c-0.7,0-1.3-0.2-1.8-0.5s-0.9-0.8-1.2-1.4
				c-0.3-0.6-0.4-1.4-0.4-2.2c0-1.3,0.3-2.3,0.9-3c0.6-0.7,1.5-1.1,2.6-1.1s1.9,0.4,2.6,1.1C313.1,52.2,313.4,53.3,313.4,54.5z
				 M307.1,54.5c0,1.1,0.2,1.9,0.7,2.6c0.5,0.6,1.2,0.9,2,0.9c0.8,0,1.6-0.3,2-0.9c0.5-0.6,0.7-1.5,0.7-2.6c0-1.1-0.2-1.9-0.7-2.6
				c-0.5-0.6-1.2-0.9-2-0.9c-0.8,0-1.6,0.3-2,0.9C307.4,52.6,307.1,53.4,307.1,54.5z"/>
			<path class="st4" d="M322.2,54.5c0,1.3-0.3,2.3-0.9,3s-1.5,1.1-2.6,1.1c-0.7,0-1.3-0.2-1.8-0.5s-0.9-0.8-1.2-1.4
				c-0.3-0.6-0.4-1.4-0.4-2.2c0-1.3,0.3-2.3,0.9-3c0.6-0.7,1.5-1.1,2.6-1.1s1.9,0.4,2.6,1.1C321.8,52.2,322.2,53.3,322.2,54.5z
				 M315.9,54.5c0,1.1,0.2,1.9,0.7,2.6c0.5,0.6,1.2,0.9,2,0.9c0.8,0,1.6-0.3,2-0.9c0.5-0.6,0.7-1.5,0.7-2.6c0-1.1-0.2-1.9-0.7-2.6
				c-0.5-0.6-1.2-0.9-2-0.9c-0.8,0-1.6,0.3-2,0.9C316.1,52.6,315.9,53.4,315.9,54.5z"/>
			<path class="st4" d="M325.1,58.5h-0.7V47h0.7V58.5z"/>
			<path class="st4" d="M333.4,58.5l-3.1-8h0.7l2.1,5.5c0.3,0.7,0.5,1.3,0.6,1.8l0,0c0.2-0.7,0.4-1.3,0.6-1.8l2.1-5.5h0.7l-3.1,8
				H333.4z"/>
			<path class="st4" d="M345.1,54.5c0,1.3-0.3,2.3-0.9,3s-1.5,1.1-2.6,1.1c-0.7,0-1.3-0.2-1.8-0.5s-0.9-0.8-1.2-1.4
				c-0.3-0.6-0.4-1.4-0.4-2.2c0-1.3,0.3-2.3,0.9-3c0.6-0.7,1.5-1.1,2.6-1.1s1.9,0.4,2.6,1.1C344.8,52.2,345.1,53.3,345.1,54.5z
				 M338.8,54.5c0,1.1,0.2,1.9,0.7,2.6c0.5,0.6,1.2,0.9,2,0.9c0.8,0,1.6-0.3,2-0.9c0.5-0.6,0.7-1.5,0.7-2.6c0-1.1-0.2-1.9-0.7-2.6
				c-0.5-0.6-1.2-0.9-2-0.9c-0.8,0-1.6,0.3-2,0.9C339,52.6,338.8,53.4,338.8,54.5z"/>
			<path class="st4" d="M353.8,54.5c0,1.3-0.3,2.3-0.9,3s-1.5,1.1-2.6,1.1c-0.7,0-1.3-0.2-1.8-0.5s-0.9-0.8-1.2-1.4
				c-0.3-0.6-0.4-1.4-0.4-2.2c0-1.3,0.3-2.3,0.9-3c0.6-0.7,1.5-1.1,2.6-1.1s1.9,0.4,2.6,1.1C353.5,52.2,353.8,53.3,353.8,54.5z
				 M347.6,54.5c0,1.1,0.2,1.9,0.7,2.6c0.5,0.6,1.2,0.9,2,0.9c0.8,0,1.6-0.3,2-0.9c0.5-0.6,0.7-1.5,0.7-2.6c0-1.1-0.2-1.9-0.7-2.6
				c-0.5-0.6-1.2-0.9-2-0.9c-0.8,0-1.6,0.3-2,0.9C347.8,52.6,347.6,53.4,347.6,54.5z"/>
			<path class="st4" d="M359.2,50.3c0.3,0,0.7,0,1.1,0.1l-0.1,0.7c-0.3-0.1-0.7-0.1-1-0.1c-0.7,0-1.2,0.3-1.7,0.9
				c-0.4,0.6-0.7,1.3-0.7,2.2v4.4h-0.7v-8h0.6l0.1,1.4h0.1c0.3-0.6,0.7-1,1-1.2C358.2,50.5,358.6,50.3,359.2,50.3z"/>
			<path class="st4" d="M365.9,58.5V47.7h0.7v10.8H365.9z"/>
			<path class="st4" d="M375.1,58.5v-5.3c0-0.8-0.2-1.4-0.5-1.7c-0.3-0.4-0.9-0.5-1.6-0.5c-0.9,0-1.6,0.2-2.1,0.7
				c-0.4,0.5-0.7,1.3-0.7,2.3v4.4h-0.7v-8h0.6l0.1,1.1l0,0c0.5-0.8,1.4-1.2,2.8-1.2c1.8,0,2.7,1,2.7,2.9v5.3h-0.6V58.5z"/>
			<path class="st4" d="M386.6,53.1c0,1.8-0.5,3.1-1.4,4.1c-0.9,0.9-2.3,1.4-4.1,1.4h-2.6V47.8h2.9c1.7,0,3,0.4,3.9,1.3
				C386.2,50,386.6,51.4,386.6,53.1z M385.8,53.1c0-1.5-0.4-2.7-1.2-3.5c-0.8-0.8-1.9-1.2-3.4-1.2h-2v9.5h1.8
				C384.2,57.9,385.8,56.3,385.8,53.1z"/>
			<path class="st4" d="M392.1,58.7c-1.2,0-2.1-0.4-2.7-1.1c-0.6-0.7-1-1.7-1-3s0.3-2.3,0.9-3c0.6-0.8,1.5-1.1,2.5-1.1
				c0.9,0,1.7,0.3,2.2,1c0.5,0.7,0.8,1.5,0.8,2.7v0.6h-5.7c0,1.1,0.3,1.9,0.8,2.5c0.5,0.6,1.2,0.9,2.1,0.9c0.5,0,0.9,0,1.2-0.1
				c0.3-0.1,0.8-0.2,1.3-0.4v0.7c-0.4,0.2-0.9,0.3-1.2,0.4C393,58.6,392.6,58.7,392.1,58.7z M391.9,51.1c-0.8,0-1.4,0.3-1.8,0.8
				c-0.5,0.5-0.7,1.2-0.8,2.2h4.9c0-0.9-0.2-1.6-0.6-2.2C393.2,51.3,392.6,51.1,391.9,51.1z"/>
			<path class="st4" d="M402,56.4c0,0.7-0.3,1.3-0.8,1.6c-0.5,0.4-1.3,0.6-2.3,0.6c-1.1,0-1.9-0.2-2.5-0.5v-0.8
				c0.8,0.4,1.6,0.6,2.5,0.6c0.8,0,1.4-0.1,1.8-0.4s0.6-0.6,0.6-1s-0.2-0.7-0.5-1c-0.3-0.3-0.9-0.5-1.6-0.8
				c-0.8-0.3-1.4-0.5-1.7-0.7c-0.3-0.2-0.6-0.4-0.7-0.7c-0.2-0.3-0.2-0.6-0.2-1c0-0.6,0.2-1.1,0.7-1.4s1.2-0.5,2.1-0.5
				c0.9,0,1.7,0.2,2.4,0.5l-0.3,0.7c-0.8-0.3-1.5-0.5-2.2-0.5c-0.6,0-1.2,0.1-1.5,0.3c-0.4,0.2-0.6,0.5-0.6,0.9s0.1,0.7,0.4,1
				c0.3,0.2,0.9,0.5,1.7,0.8c0.7,0.3,1.2,0.5,1.6,0.7c0.3,0.2,0.6,0.4,0.7,0.7C402,55.8,402,56.1,402,56.4z"/>
			<path class="st4" d="M404,48.3c0-0.5,0.2-0.7,0.5-0.7c0.2,0,0.3,0.1,0.4,0.2c0.1,0.1,0.1,0.3,0.1,0.5s0,0.4-0.1,0.5
				c-0.1,0.1-0.2,0.2-0.4,0.2C404.1,49,404,48.7,404,48.3z M404.8,58.5h-0.7v-8h0.7V58.5z"/>
			<path class="st4" d="M413.7,50.6v0.5l-1.6,0.1c0.4,0.5,0.7,1.1,0.7,1.8c0,0.8-0.3,1.4-0.8,1.9c-0.5,0.5-1.2,0.7-2.1,0.7
				c-0.4,0-0.6,0-0.8,0c-0.3,0.2-0.5,0.3-0.7,0.5c-0.2,0.2-0.2,0.4-0.2,0.7c0,0.3,0.1,0.4,0.3,0.6c0.2,0.1,0.5,0.2,1,0.2h1.4
				c0.9,0,1.5,0.2,2,0.5s0.7,0.9,0.7,1.5c0,0.8-0.3,1.5-1,1.9c-0.7,0.5-1.6,0.7-2.9,0.7c-1,0-1.8-0.2-2.3-0.6
				c-0.5-0.4-0.8-0.9-0.8-1.6c0-0.5,0.2-1,0.5-1.4c0.3-0.4,0.8-0.6,1.4-0.7c-0.2-0.1-0.4-0.2-0.6-0.4c-0.1-0.2-0.2-0.4-0.2-0.6
				c0-0.5,0.3-1,1-1.4c-0.5-0.2-0.8-0.5-1.1-0.9c-0.3-0.4-0.4-0.9-0.4-1.4c0-0.8,0.3-1.4,0.8-1.9c0.5-0.5,1.2-0.7,2-0.7
				c0.5,0,0.9,0.1,1.2,0.2h2.5V50.6z M407.2,60c0,1.1,0.8,1.6,2.4,1.6c2.1,0,3.1-0.7,3.1-2c0-0.5-0.2-0.8-0.5-1
				c-0.3-0.2-0.9-0.3-1.6-0.3h-1.3C408,58.1,407.2,58.7,407.2,60z M407.8,53c0,0.6,0.2,1.1,0.6,1.4c0.4,0.3,0.9,0.5,1.5,0.5
				c0.7,0,1.2-0.2,1.5-0.5c0.4-0.3,0.5-0.8,0.5-1.5s-0.2-1.2-0.5-1.5c-0.4-0.3-0.9-0.5-1.5-0.5s-1.1,0.2-1.5,0.5
				C408,51.9,407.8,52.4,407.8,53z"/>
			<path class="st4" d="M420.8,58.5v-5.3c0-0.8-0.2-1.4-0.5-1.7c-0.3-0.4-0.9-0.5-1.6-0.5c-0.9,0-1.6,0.2-2.1,0.7
				c-0.4,0.5-0.7,1.3-0.7,2.3v4.4h-0.7v-8h0.6l0.1,1.1l0,0c0.5-0.8,1.4-1.2,2.8-1.2c1.8,0,2.7,1,2.7,2.9v5.3h-0.6V58.5z"/>
			<path class="st4" d="M424,57.9c0-0.5,0.2-0.7,0.6-0.7s0.6,0.2,0.6,0.7c0,0.5-0.2,0.7-0.6,0.7C424.2,58.7,424,58.4,424,57.9z"/>
		</g>
	</g>
</g>
</svg>
